<svg width="291" height="251" viewBox="0 0 291 251" fill="none" xmlns="http://www.w3.org/2000/svg">
<path fill-rule="evenodd" clip-rule="evenodd" d="M285.638 127.918C288.358 86.5295 262.921 48.7263 224.467 33.178C206.367 25.8592 188.255 17.9448 175.597 10.9941C160.275 2.58131 133.982 0.680117 108.969 1.24892C70.2618 2.12913 40.0582 32.4659 32.9663 70.5285L20.264 138.703C9.97772 193.911 51.1224 245.373 107.24 247.49L175.34 250.058L192.416 249.883C240.519 249.389 280.12 211.92 283.273 163.918L285.638 127.918Z" fill="white"/>
<mask id="mask0_1946_17178" style="mask-type:luminance" maskUnits="userSpaceOnUse" x="18" y="1" width="268" height="250">
<path fill-rule="evenodd" clip-rule="evenodd" d="M285.638 127.918C288.358 86.5295 262.921 48.7263 224.467 33.178C206.367 25.8592 188.255 17.9448 175.597 10.9941C160.275 2.58131 133.982 0.680117 108.969 1.24892C70.2618 2.12913 40.0582 32.4659 32.9663 70.5285L20.264 138.703C9.97772 193.911 51.1224 245.373 107.24 247.49L175.34 250.058L192.416 249.883C240.519 249.389 280.12 211.92 283.273 163.918L285.638 127.918Z" fill="white"/>
</mask>
<g mask="url(#mask0_1946_17178)">
<path fill-rule="evenodd" clip-rule="evenodd" d="M209.528 352.488L89.9314 351.934C75.5478 351.869 63.9385 340.157 64.0003 325.773L65.2667 25.9423C65.3285 11.5505 77.0467 -0.0660351 91.4395 0.000282544L211.036 0.552627C225.42 0.619853 237.028 12.3308 236.967 26.7145L235.699 326.547C235.639 340.938 223.919 352.555 209.528 352.488Z" fill="url(#paint0_linear_1946_17178)"/>
<path fill-rule="evenodd" clip-rule="evenodd" d="M210.241 11.0568L187.053 10.9496C183.944 10.936 181.411 13.5596 181.398 16.8101L181.379 21.0162C181.366 24.2667 178.834 26.8913 175.725 26.8767L130.526 26.6678C127.417 26.6532 124.907 24.006 124.921 20.7555L124.939 16.5493C124.952 13.2989 122.442 10.6516 119.333 10.6371L111.178 10.5989L90.8828 10.5054C80.8043 10.459 72.5964 18.5943 72.5537 28.6746L71.3163 321.331C71.2736 331.405 79.4044 339.607 89.4774 339.654L208.835 340.204C218.914 340.251 227.121 332.117 227.165 322.037L228.401 29.3786C228.444 19.3056 220.315 11.104 210.241 11.0568Z" fill="url(#paint1_linear_1946_17178)"/>
<mask id="mask1_1946_17178" style="mask-type:alpha" maskUnits="userSpaceOnUse" x="71" y="10" width="158" height="331">
<path fill-rule="evenodd" clip-rule="evenodd" d="M187.053 10.9496C183.944 10.936 181.411 13.5596 181.398 16.8101L181.379 21.0162C181.366 24.2667 178.834 26.8913 175.725 26.8767L130.526 26.6678C127.417 26.6532 124.907 24.006 124.921 20.7555L124.939 16.5493C124.952 13.2989 122.442 10.6516 119.333 10.6371L111.178 10.5989L90.8827 10.5053C80.8043 10.459 72.5963 18.5943 72.5536 28.6746L71.3163 321.331C71.2736 331.405 79.4043 339.607 89.4773 339.654L208.835 340.204C218.914 340.251 227.121 332.117 227.165 322.037L228.401 29.3786C228.444 19.3056 220.315 11.104 210.241 11.0568L187.053 10.9496Z" fill="url(#paint2_linear_1946_17178)"/>
</mask>
<g mask="url(#mask1_1946_17178)">
<rect x="117.886" y="119.798" width="97.564" height="10.0581" rx="5.02907" fill="#B2B3B6"/>
<circle cx="96.6385" cy="124.733" r="12.5727" fill="#01B0C4"/>
<rect x="117.886" y="155.002" width="97.564" height="10.0581" rx="5.02907" fill="#B2B3B6"/>
<circle cx="96.6385" cy="159.936" r="12.5727" fill="#6A64EC"/>
<rect x="117.886" y="190.205" width="97.564" height="10.0581" rx="5.02907" fill="#B2B3B6"/>
<circle cx="96.6385" cy="195.14" r="12.5727" fill="#F89E15"/>
<rect x="117.886" y="225.409" width="97.564" height="10.0581" rx="5.02907" fill="#B2B3B6"/>
<circle cx="96.6385" cy="230.343" r="12.5727" fill="#CD2B37"/>
<circle cx="199.388" cy="81.6394" r="11.7177" fill="white" stroke="#FF6772" stroke-width="2"/>
<path fill-rule="evenodd" clip-rule="evenodd" d="M148.516 46.8761C148.989 46.8762 149.462 46.8763 149.934 46.8763V46.8779C150.331 46.8779 150.727 46.8779 151.123 46.8779C153.106 46.8778 155.089 46.8776 157.071 46.8805C157.199 46.8807 157.255 46.8547 157.287 46.716C157.566 45.4885 157.85 44.2621 158.135 43.0356C158.249 42.5425 158.363 42.0495 158.477 41.5563C158.503 41.4443 158.505 41.3309 158.468 41.2185C158.334 40.8016 157.886 40.6599 157.494 40.9189C156.499 41.5773 155.503 42.2365 154.513 42.9036C154.381 42.9924 154.326 42.9749 154.233 42.8543C153.296 41.6467 152.356 40.442 151.416 39.2372C151.114 38.8507 150.812 38.4641 150.511 38.0774C150.137 37.5983 149.698 37.6152 149.357 38.1237C149.124 38.4722 148.891 38.821 148.659 39.1697C148.5 39.4065 148.342 39.6432 148.184 39.8799C148.024 40.1201 147.863 40.3602 147.702 40.6003C147.196 41.3565 146.69 42.1127 146.188 42.8712C146.113 42.9841 146.052 43.0267 145.938 42.9317C145.915 42.9128 145.888 42.8992 145.861 42.8856C145.848 42.879 145.835 42.8724 145.823 42.8653C145.532 42.6995 145.241 42.5338 144.951 42.3681C144.095 41.88 143.239 41.3919 142.383 40.9024C142.13 40.7572 141.878 40.7262 141.636 40.9111C141.402 41.0895 141.36 41.3286 141.425 41.6093C141.817 43.2913 142.205 44.9741 142.585 46.6585C142.625 46.8337 142.694 46.8815 142.874 46.881C144.754 46.8753 146.635 46.8757 148.516 46.8761ZM157.253 48.5084C157.285 48.3811 157.317 48.2527 157.351 48.1232H157.105C156.188 48.1231 155.271 48.1229 154.354 48.1228C151.613 48.1224 148.871 48.122 146.13 48.1217C145.86 48.1217 145.59 48.1223 145.32 48.1228C144.648 48.1241 143.976 48.1255 143.304 48.1183C143.119 48.1164 143.113 48.1696 143.149 48.3005C143.206 48.5036 143.259 48.7076 143.312 48.9116C143.343 49.0352 143.375 49.1589 143.408 49.2823C143.508 49.6577 143.706 49.7994 144.128 49.7994C146.406 49.7996 148.683 49.7997 150.961 49.7994C152.767 49.7993 154.574 49.7988 156.38 49.7977C156.71 49.7975 156.942 49.6608 157.02 49.3901C157.104 49.0996 157.178 48.8067 157.253 48.5084Z" fill="#ECC32E"/>
<path fill-rule="evenodd" clip-rule="evenodd" d="M150.965 38.0774C150.736 37.7642 150.452 37.7298 150.452 37.7298V46.8805C150.452 46.8805 154.909 46.8771 157.152 46.8805C157.273 46.8807 157.326 46.8547 157.355 46.716C157.619 45.4887 157.887 44.2624 158.155 43.0361C158.263 42.5428 158.371 42.0496 158.478 41.5563C158.503 41.4443 158.504 41.3309 158.47 41.2185C158.344 40.8016 157.921 40.6599 157.551 40.9189C156.612 41.5773 155.674 42.2365 154.74 42.9036C154.616 42.9924 154.564 42.9749 154.476 42.8543C153.592 41.6468 152.706 40.4421 151.819 39.2374C151.534 38.8508 151.25 38.4641 150.965 38.0774ZM157.324 48.5084C157.354 48.3811 157.384 48.2527 157.416 48.1232H157.184C154.945 48.1229 150.452 48.1232 150.452 48.1232L150.45 49.7996L151.39 49.7994C153.093 49.7993 154.797 49.7988 156.501 49.7977C156.812 49.7975 157.03 49.6608 157.104 49.3901C157.183 49.0996 157.253 48.8067 157.324 48.5084Z" fill="#E7A52E"/>
<path d="M145.42 43.5485L147.248 44.5396L149.936 40.8683C150.128 40.7069 150.41 40.7069 150.602 40.8683L153.741 44.5396L155.472 43.5485V44.6781L153.943 45.6017C153.753 45.7103 153.517 45.688 153.352 45.549L150.269 41.9254L147.637 45.549C147.471 45.6887 147.235 45.7097 147.046 45.6017L145.42 44.6781V43.5485Z" fill="#F9F48E"/>
<path d="M150.269 40.7476C150.269 40.7476 150.446 40.7473 150.602 40.8683L153.741 44.5396L155.472 43.5485V44.6781L153.943 45.6017C153.753 45.7103 153.517 45.688 153.352 45.549L150.269 41.9254L150.269 40.7476Z" fill="#F1D333"/>
<circle cx="150.45" cy="74.0546" r="20.0445" fill="white" stroke="#ECC32E" stroke-width="2"/>
<mask id="mask2_1946_17178" style="mask-type:luminance" maskUnits="userSpaceOnUse" x="129" y="53" width="43" height="43">
<circle cx="150.45" cy="74.0546" r="20.0445" fill="white" stroke="white" stroke-width="2"/>
</mask>
<g mask="url(#mask2_1946_17178)">
</g>
<circle cx="99.8126" cy="81.3756" r="11.7177" fill="white" stroke="#7BB6F7" stroke-width="2"/>
<mask id="mask3_1946_17178" style="mask-type:luminance" maskUnits="userSpaceOnUse" x="87" y="68" width="26" height="27">
<circle cx="99.8126" cy="81.3756" r="11.7177" fill="white" stroke="white" stroke-width="2"/>
</mask>
<g mask="url(#mask3_1946_17178)">
</g>
</g>
</g>
<defs>
<linearGradient id="paint0_linear_1946_17178" x1="101.14" y1="33.3459" x2="101.14" y2="234.46" gradientUnits="userSpaceOnUse">
<stop stop-color="#FFFCFC"/>
<stop offset="0.606953" stop-color="#F7F7F7"/>
<stop offset="1" stop-color="white" stop-opacity="0.01"/>
</linearGradient>
<linearGradient id="paint1_linear_1946_17178" x1="97.6155" y1="10.5052" x2="97.6155" y2="229.807" gradientUnits="userSpaceOnUse">
<stop stop-color="#ECECEC"/>
<stop offset="1" stop-color="white" stop-opacity="0.01"/>
</linearGradient>
<linearGradient id="paint2_linear_1946_17178" x1="95.4938" y1="10.5048" x2="95.4938" y2="238.712" gradientUnits="userSpaceOnUse">
<stop stop-color="white"/>
<stop offset="0.632684" stop-color="white" stop-opacity="0.25"/>
<stop offset="1" stop-color="white" stop-opacity="0.01"/>
</linearGradient>
</defs>
</svg>
