<svg width="291" height="251" viewBox="0 0 291 281" fill="none" xmlns="http://www.w3.org/2000/svg">
<mask id="mask0_1946_17032" style="mask-type:luminance" maskUnits="userSpaceOnUse" x="16" y="1" width="247" height="280">
<path fill-rule="evenodd" clip-rule="evenodd" d="M260.376 109.663C259.518 78.4183 242.896 49.6898 215.901 33.9339C202.756 26.2614 188.399 18.024 175.597 10.9941C160.562 2.73876 134.963 0.753563 110.375 1.2196C70.9771 1.96636 40.4578 33.2664 34.03 72.1437L17.7739 170.466C8.73631 225.128 49.7094 275.32 105.074 277.408L175.34 280.058L185.315 278.428C230.755 271.005 263.71 231.133 262.447 185.108L260.376 109.663Z" fill="white"/>
</mask>
<g mask="url(#mask0_1946_17032)">
<path fill-rule="evenodd" clip-rule="evenodd" d="M250 92H105.484L104.54 89.5391H96C105.042 87.3761 114.81 85.2637 124.605 80.864C130.701 78.1258 136.09 74.822 141.116 71.4413H159.728V67H215.425C219.989 71.5041 224.004 76.8287 227.624 82.7458C228.72 82.5306 229.598 82.357 230.166 82.2424C231.54 81.9618 232.722 81.7139 233.957 81.7139C236.13 81.7139 238.462 82.4858 242.299 85.2086C244.221 86.578 246.949 89.11 250 92Z" fill="#654933"/>
<path fill-rule="evenodd" clip-rule="evenodd" d="M159 71H141C143.121 69.6674 145.184 68.3216 147.196 67H159V71Z" fill="#473829"/>
<path fill-rule="evenodd" clip-rule="evenodd" d="M159.19 67.8825H147.111C151.236 64.8824 155.184 61.991 159.19 59.5415V67.8825Z" fill="#141614"/>
<path fill-rule="evenodd" clip-rule="evenodd" d="M249.753 166.603C259.727 155.693 253.674 135.044 253.674 135.044C253.674 135.044 249.158 126.446 248.596 123.107C248.033 119.768 247.609 119.09 246.118 115.856C244.621 112.621 246.412 110.371 245.105 109.888C243.791 109.407 241.674 106.463 239.327 103.513C236.987 100.563 232.64 95.3825 232.176 94.6154C231.712 93.8483 229.758 95.7392 226.11 95.1425C222.456 94.5466 202.906 83.7712 207.723 82.1872C212.541 80.6038 230.797 77.03 234.666 76.2157C238.53 75.4014 240.889 74.8513 246.981 79.3312C253.08 83.8112 267.035 100.134 274.467 102.793C281.892 105.452 285.324 109.808 286.108 110.806C289.259 114.799 289.599 118.132 290.651 122.993C291.697 127.853 302.841 148.212 308.018 164.139C313.195 180.051 341.328 259.709 360.146 281.26H297.39C296.501 281.454 283.539 237.171 280.284 232.245C277.029 227.319 269.002 224.065 261.525 217.063C254.047 210.061 246.975 196.868 244.641 192.279C242.301 187.69 239.778 177.513 249.753 166.603Z" fill="#A06959"/>
<path fill-rule="evenodd" clip-rule="evenodd" d="M232.313 90.0038C233.696 85.2457 233.999 83 233.999 83C234.043 87.5528 232.949 91.6387 231.301 94.7966C231.027 94.7155 230.599 94.8319 230 95C230.761 93.8504 231.67 92.2148 232.313 90.0038Z" fill="#CCA491"/>
<path fill-rule="evenodd" clip-rule="evenodd" d="M247.932 110C247.921 109.517 247.832 109.183 247.524 109.023C247.361 108.941 247.188 108.786 247 108.585C249.099 105.879 251 101 251 101C251 101 249.66 106.46 247.932 110Z" fill="#9C6A5C"/>
<path fill-rule="evenodd" clip-rule="evenodd" d="M253 134.332C253.006 129.447 254.176 130.947 254.219 127.918C254.262 124.89 257.949 121.468 258.558 119.751C259.168 118.034 259.488 119.254 257.161 123.479C254.834 127.703 254.859 127.929 254.68 130.784C254.539 133.12 254.182 131.322 253.172 135C253.068 134.568 253 134.332 253 134.332Z" fill="#9C6A5C"/>
<path fill-rule="evenodd" clip-rule="evenodd" d="M70.0657 164.505C65.8103 162.291 64 161 64 161C67.3126 164.074 70.9143 166.042 74.1326 167C74.2269 166.757 74.5474 166.535 75 166.23C73.7366 165.996 72.0394 165.534 70.0657 164.505Z" fill="#CCA491"/>
<path fill-rule="evenodd" clip-rule="evenodd" d="M77 189C76.6618 188.743 76.51 188.49 76.6549 188.142C76.7308 187.962 76.7722 187.73 76.7929 187.465C73.0798 187.88 68 187 68 187C68 187 73.0176 188.661 77 189Z" fill="#CCA491"/>
<path fill-rule="evenodd" clip-rule="evenodd" d="M91.6085 209.414C87.8952 206.163 88.2551 208.11 85.9249 206.126C83.6009 204.142 78.5551 204.848 76.8437 204.199C75.1323 203.55 75.8522 204.62 80.6012 205.552C85.3565 206.482 85.5081 206.652 87.7941 208.412C89.6634 209.852 88.5393 208.363 92 210C91.7411 209.625 91.6085 209.414 91.6085 209.414Z" fill="#CCA491"/>
<path fill-rule="evenodd" clip-rule="evenodd" d="M78.2129 268.323C80.3469 271.92 82.5001 275.382 84.5958 279H146.42C146.784 275.378 147.142 271.352 146.943 266.959C146.464 256.602 141.123 242.513 139.193 237.708C137.257 232.902 131.289 224.301 116.869 224.885C102.454 225.468 90.9341 207.293 90.9341 207.293C90.9341 207.293 87.3944 198.185 85.2667 195.568C83.1455 192.95 82.9027 192.181 81.4459 188.913C79.9827 185.644 77.1842 185.557 77.6506 184.229C78.1234 182.901 77.2736 179.338 76.5644 175.6C75.8488 171.862 74.7498 165.112 74.4687 164.253C74.1939 163.394 76.8327 163.118 78.6984 159.907C80.5578 156.696 84.9089 134.536 80.6855 137.226C76.4686 139.916 62.265 151.698 59.2172 154.155C56.1695 156.613 54.2718 158.076 53.7479 165.716C53.224 173.355 56.5337 194.813 53.8182 202.294C51.0963 209.776 52.1697 215.271 52.4125 216.533C53.3901 221.577 55.6519 224.02 58.6038 228.006C61.5557 231.992 69.6447 253.911 78.2129 268.323Z" fill="#A06959"/>
<path fill-rule="evenodd" clip-rule="evenodd" d="M60.9667 107.215C73.4095 81.5175 100.133 86.5389 127.027 74.1288C153.928 61.7187 167.365 38.1645 195.09 45.3291C222.808 52.4943 236.723 81.0001 248.138 113.043C259.554 145.086 261.791 164.879 243.703 157.824C225.614 150.769 215.383 120.348 160.339 145.747C105.288 171.146 121.977 198.59 115.677 216.896C109.384 235.203 95.6717 220.704 78.5187 191.31C61.3592 161.915 48.5239 132.912 60.9667 107.215Z" fill="#44464F"/>
<path fill-rule="evenodd" clip-rule="evenodd" d="M168.373 115.586V115.585C168.373 115.585 171.507 111.199 164.068 97.8785C163.952 97.6771 163.835 97.4744 163.725 97.2691L163.686 97.2103C163.615 97.0782 163.544 96.9461 163.479 96.8141C163.22 96.3237 162.974 95.8242 162.741 95.3142C155.892 80.387 162.32 62.681 177.1 55.7663C191.88 48.8515 209.411 55.3465 216.261 70.2738C221.401 81.4769 219.057 94.2459 211.321 102.843C210.823 103.399 210.298 103.937 209.754 104.457C202.562 112.173 203.753 115.99 206.278 121.175C211.593 132.754 206.602 146.49 195.136 151.854C183.671 157.218 170.07 152.18 164.761 140.6C160.825 132.016 162.553 122.251 168.373 115.586Z" fill="#303035"/>
<path fill-rule="evenodd" clip-rule="evenodd" d="M171.673 138.564C175.846 147.582 186.542 151.506 195.564 147.329C204.579 143.151 208.508 132.454 204.328 123.435C200.149 114.418 189.453 110.494 180.437 114.671C171.415 118.849 167.493 129.546 171.673 138.564Z" fill="#606063"/>
<path fill-rule="evenodd" clip-rule="evenodd" d="M175.253 138.173C178.385 144.936 186.406 147.88 193.174 144.747C199.935 141.613 202.88 133.591 199.748 126.827C196.616 120.064 188.589 117.12 181.827 120.253C175.06 123.387 172.122 131.409 175.253 138.173Z" fill="#9F9F9E"/>
<path fill-rule="evenodd" clip-rule="evenodd" d="M168.277 91.7957C173.96 104.071 188.523 109.411 200.798 103.725C213.067 98.039 218.414 83.4791 212.724 71.2043C207.041 58.9294 192.478 53.5887 180.203 59.2748C167.928 64.961 162.588 79.5209 168.277 91.7957Z" fill="#606063"/>
<path fill-rule="evenodd" clip-rule="evenodd" d="M179.555 74.5217C180.949 77.5278 184.515 78.8353 187.522 77.4429C190.528 76.0504 191.836 72.4844 190.442 69.4791C189.048 66.4722 185.481 65.1647 182.475 66.5571C179.469 67.9496 178.168 71.5156 179.555 74.5217Z" fill="#9F9F9E"/>
<path fill-rule="evenodd" clip-rule="evenodd" d="M191.558 96.5217C192.945 99.5278 196.513 100.835 199.52 99.4429C202.528 98.0504 203.836 94.4844 202.442 91.4783C201.055 88.4722 197.487 87.1647 194.48 88.5571C191.472 89.9496 190.164 93.5156 191.558 96.5217Z" fill="#9F9F9E"/>
<path fill-rule="evenodd" clip-rule="evenodd" d="M182.521 96.443C185.528 95.0506 186.836 91.4848 185.442 88.4788C184.048 85.4729 180.488 84.1646 177.482 85.557C174.475 86.9501 173.167 90.5152 174.553 93.5212C175.947 96.5271 179.515 97.8354 182.521 96.443Z" fill="#9F9F9E"/>
<path fill-rule="evenodd" clip-rule="evenodd" d="M204.521 81.443C207.528 80.0506 208.836 76.4846 207.442 73.4786C206.048 70.4726 202.488 69.1642 199.482 70.5575C196.475 71.9499 195.167 75.5151 196.553 78.5211C197.947 81.5271 201.515 82.8355 204.521 81.443Z" fill="#9F9F9E"/>
<path fill-rule="evenodd" clip-rule="evenodd" d="M132.204 133.322V133.318C132.204 133.318 126.762 132.904 121.42 118.724C121.341 118.506 121.262 118.289 121.176 118.072L121.15 118.009C121.103 117.867 121.044 117.73 120.985 117.595C120.78 117.085 120.556 116.577 120.319 116.073C113.347 101.319 95.4795 94.8997 80.4217 101.734C65.364 108.569 58.8146 126.069 65.7927 140.822C71.023 151.895 82.3938 158.274 94.1076 157.877C94.8661 157.852 95.6246 157.797 96.3831 157.714C107.061 157.169 109.212 160.516 111.533 165.756C116.948 177.201 130.799 182.181 142.48 176.879C154.161 171.577 159.246 158.002 153.837 146.556C149.821 138.072 141.174 133.146 132.204 133.322Z" fill="#303035"/>
<path fill-rule="evenodd" clip-rule="evenodd" d="M145.331 147.436C149.504 156.454 145.582 167.151 136.567 171.329C127.545 175.506 116.848 171.582 112.669 162.564C108.496 153.546 112.418 142.849 121.433 138.671C130.455 134.494 141.152 138.418 145.331 147.436Z" fill="#606063"/>
<path fill-rule="evenodd" clip-rule="evenodd" d="M142.744 150.827C145.882 157.59 142.938 165.613 136.171 168.746C129.41 171.88 121.39 168.937 118.252 162.173C115.121 155.41 118.065 147.387 124.826 144.254C131.593 141.12 139.612 144.063 142.744 150.827Z" fill="#9F9F9E"/>
<path fill-rule="evenodd" clip-rule="evenodd" d="M113.723 117.205C119.412 129.479 114.073 144.039 101.797 149.725C89.5223 155.411 74.9596 150.07 69.2769 137.796C63.5876 125.521 68.9275 110.961 81.2026 105.275C93.4777 99.5886 108.04 104.93 113.723 117.205Z" fill="#606063"/>
<path fill-rule="evenodd" clip-rule="evenodd" d="M88.7962 129.367L88.7959 129.366C85.8707 128.305 84.2307 127.71 81.3057 126.647L73.5799 130.25C72.9092 130.563 72.6188 131.359 72.9309 132.028L76.5592 139.809C76.8712 140.478 77.6675 140.767 78.3382 140.454L86.064 136.852C87.1308 133.929 87.7291 132.29 88.7962 129.367ZM101.612 129.601L109.338 125.999C110.008 125.686 110.299 124.891 109.987 124.222L106.358 116.441C106.046 115.771 105.25 115.482 104.579 115.795L96.8537 119.397C95.7869 122.321 95.1884 123.96 94.1218 126.883L94.1221 126.883C97.0468 127.945 98.687 128.54 101.612 129.601ZM92.6988 130.783L92.698 130.783C91.6309 133.706 91.033 135.345 89.9658 138.268L93.562 145.98C93.874 146.649 94.6705 146.938 95.3408 146.626L103.136 142.991C103.806 142.678 104.097 141.882 103.785 141.213L100.189 133.501C97.2636 132.44 95.6238 131.844 92.6988 130.783ZM90.2196 125.466L90.2189 125.467C87.2937 124.405 85.654 123.81 82.7289 122.748L79.1329 115.037C78.8208 114.368 79.1114 113.572 79.7817 113.259L87.5768 109.624C88.2472 109.311 89.0436 109.601 89.3557 110.27L92.9517 117.981C91.8847 120.905 91.2866 122.543 90.2196 125.466Z" fill="#4D4D52"/>
<path fill-rule="evenodd" clip-rule="evenodd" d="M88.7968 128.179L88.7964 128.179C85.8716 127.117 84.2314 126.521 81.3064 125.46L73.5806 129.063C72.9103 129.375 72.6198 130.171 72.9318 130.84L76.5599 138.621C76.8721 139.29 77.6686 139.58 78.339 139.267L86.0647 135.664C87.1317 132.741 87.7302 131.102 88.7968 128.179ZM101.613 128.414L109.339 124.811C110.009 124.499 110.3 123.703 109.988 123.033L106.359 115.253C106.047 114.584 105.251 114.295 104.581 114.607L96.8548 118.21C95.7876 121.133 95.1897 122.772 94.1227 125.695L94.1231 125.696C97.0483 126.757 98.6879 127.352 101.613 128.414ZM92.6997 129.595L92.699 129.596C91.6318 132.518 91.0339 134.157 89.9668 137.08L93.563 144.792C93.875 145.462 94.6713 145.75 95.3421 145.437L103.137 141.803C103.807 141.49 104.098 140.694 103.786 140.025L100.19 132.313C97.2649 131.252 95.6247 130.656 92.6997 129.595ZM90.2205 124.279L90.2198 124.279C87.2946 123.217 85.6548 122.622 82.7298 121.56L79.1339 113.849C78.8215 113.179 79.1122 112.384 79.7829 112.071L87.5777 108.436C88.248 108.123 89.0447 108.412 89.3571 109.082L92.9529 116.793C91.8858 119.716 91.2875 121.355 90.2205 124.279Z" fill="#9F9F9E"/>
<path fill-rule="evenodd" clip-rule="evenodd" d="M131.746 86.9058C143.265 81.8802 153.612 72.4961 148.784 82.2656C143.95 92.0357 150.042 100.95 140.666 105.041C131.29 109.132 128.006 98.9914 116.968 96.1462C105.931 93.3005 120.226 91.932 131.746 86.9058Z" fill="#303035"/>
<path fill-rule="evenodd" clip-rule="evenodd" d="M140.03 117.725L133.536 120.747C132.352 121.298 130.942 120.782 130.386 119.592C129.831 118.404 130.341 116.993 131.525 116.441L138.018 113.419C139.203 112.868 140.614 113.385 141.169 114.573C141.725 115.763 141.214 117.173 140.03 117.725Z" fill="#303035"/>
<path fill-rule="evenodd" clip-rule="evenodd" d="M150.79 112.716L157.282 109.694C158.467 109.143 158.978 107.732 158.422 106.543C157.867 105.354 156.456 104.837 155.271 105.389L148.778 108.411C147.594 108.962 147.084 110.373 147.639 111.562C148.194 112.751 149.605 113.268 150.79 112.716Z" fill="#303035"/>
<path fill-rule="evenodd" clip-rule="evenodd" d="M246.287 197.715C235.134 176.923 231.652 165.339 226.713 153.492C221.775 141.644 220.758 139.261 211.287 127.302C201.817 115.344 193.369 104.142 198.606 94.6927C203.844 85.2433 213.86 88.1765 224.008 98.9333C234.157 109.69 236.723 114.055 239.567 120.078C242.419 126.101 249.377 135.198 253.937 139.843C258.496 144.488 262.324 147.709 267.993 151.111C273.663 154.512 298.4 176.883 287.062 198.285C275.716 219.688 253.019 210.272 246.287 197.715Z" fill="#A67161"/>
<path fill-rule="evenodd" clip-rule="evenodd" d="M207.009 110.791C211.884 109.624 220.758 102.847 220.758 102.847C220.758 102.847 217.897 96.1246 214.495 92.7126C211.094 89.3012 202.502 89.0558 200.305 96.5851C198.114 104.114 207.009 110.791 207.009 110.791Z" fill="#B7887F"/>
<path fill-rule="evenodd" clip-rule="evenodd" d="M143.346 245.577C134.459 223.977 127.761 213.966 121.788 202.706C115.821 191.446 114.637 189.164 111.479 174.472C108.328 159.782 105.098 146.333 94.4666 144.156C83.8288 141.979 79.6777 151.283 81.4737 165.705C83.2697 180.127 84.9933 184.825 87.809 190.799C90.6312 196.774 93.1838 207.772 93.8482 214.129C94.5127 220.487 94.5456 225.389 93.539 231.774C92.5259 238.159 93.9338 270.844 117.689 276.166C141.445 281.488 148.715 258.623 143.346 245.577Z" fill="#A67161"/>
<path fill-rule="evenodd" clip-rule="evenodd" d="M100.99 156.389C97.1356 159.537 86.6667 162 86.6667 162C86.6667 162 83.4566 154.942 83.0248 149.768C82.5993 144.594 87.6992 137.422 94.6138 140.931C101.528 144.44 100.99 156.389 100.99 156.389Z" fill="#B7887F"/>
<path fill-rule="evenodd" clip-rule="evenodd" d="M81.2531 269.403C72.1963 255.099 63.6462 233.344 60.526 229.387C57.4057 225.431 55.0149 223.007 53.9816 218C54.2383 219.251 53.1036 220.64 52.1311 225.567C51.1586 230.493 55.8119 235.071 58.9794 241.029C62.1536 246.987 68.6507 255.74 72.3719 261.614C74.7425 265.349 79.1729 272.93 83.4142 280H88C85.7848 276.409 83.5088 272.973 81.2531 269.403Z" fill="#8E5C4D"/>
</g>
<path fill-rule="evenodd" clip-rule="evenodd" d="M285.638 157.918C288.358 116.53 262.921 78.7263 224.467 63.178C206.367 55.8592 188.255 47.9448 175.597 40.9941C160.275 32.5813 133.982 30.6801 108.969 31.2489C70.2618 32.1291 40.0582 62.4659 32.9663 100.528L20.264 168.703C9.97772 223.911 51.1224 275.373 107.24 277.49L175.34 280.058L192.416 279.883C240.519 279.389 280.12 241.92 283.273 193.918L285.638 157.918Z" fill="white"/>
<mask id="mask1_1946_17032" style="mask-type:luminance" maskUnits="userSpaceOnUse" x="18" y="31" width="268" height="250">
<path fill-rule="evenodd" clip-rule="evenodd" d="M285.638 157.918C288.358 116.53 262.921 78.7263 224.467 63.178C206.367 55.8592 188.255 47.9448 175.597 40.9941C160.275 32.5813 133.982 30.6801 108.969 31.2489C70.2618 32.1291 40.0582 62.4659 32.9663 100.528L20.264 168.703C9.97772 223.911 51.1224 275.373 107.24 277.49L175.34 280.058L192.416 279.883C240.519 279.389 280.12 241.92 283.273 193.918L285.638 157.918Z" fill="white"/>
</mask>
<g mask="url(#mask1_1946_17032)">
<path fill-rule="evenodd" clip-rule="evenodd" d="M250 92H105.484L104.54 89.5391H96C105.042 87.3761 114.81 85.2637 124.605 80.864C130.701 78.1258 136.09 74.822 141.116 71.4413H159.728V67H215.425C219.989 71.5041 224.004 76.8287 227.624 82.7458C228.72 82.5306 229.598 82.357 230.166 82.2424C231.54 81.9618 232.722 81.7139 233.957 81.7139C236.13 81.7139 238.462 82.4858 242.299 85.2086C244.221 86.578 246.949 89.11 250 92Z" fill="#654933"/>
<path fill-rule="evenodd" clip-rule="evenodd" d="M159 71H141C143.121 69.6674 145.184 68.3216 147.196 67H159V71Z" fill="#473829"/>
<path fill-rule="evenodd" clip-rule="evenodd" d="M159.19 67.8825H147.111C151.236 64.8824 155.184 61.991 159.19 59.5415V67.8825Z" fill="#141614"/>
<path fill-rule="evenodd" clip-rule="evenodd" d="M249.753 166.603C259.727 155.693 253.674 135.044 253.674 135.044C253.674 135.044 249.158 126.446 248.596 123.107C248.033 119.768 247.609 119.09 246.118 115.856C244.621 112.621 246.412 110.371 245.105 109.888C243.791 109.407 241.674 106.463 239.327 103.513C236.987 100.563 232.64 95.3825 232.176 94.6154C231.712 93.8483 229.758 95.7392 226.11 95.1425C222.456 94.5466 202.906 83.7712 207.723 82.1872C212.541 80.6038 230.797 77.03 234.666 76.2157C238.53 75.4014 240.889 74.8513 246.981 79.3312C253.08 83.8112 267.035 100.134 274.467 102.793C281.892 105.452 285.324 109.808 286.108 110.806C289.259 114.799 289.599 118.132 290.651 122.993C291.697 127.853 302.841 148.212 308.018 164.139C313.195 180.051 341.328 259.709 360.146 281.26H297.39C296.501 281.454 283.539 237.171 280.284 232.245C277.029 227.319 269.002 224.065 261.525 217.063C254.047 210.061 246.975 196.868 244.641 192.279C242.301 187.69 239.778 177.513 249.753 166.603Z" fill="#A06959"/>
<path fill-rule="evenodd" clip-rule="evenodd" d="M305.938 162.191C300.754 146.306 289.596 126.002 288.549 121.154C287.495 116.307 287.155 112.983 284 109C284.792 109.996 286.559 110.049 290.905 112.498C295.257 114.948 295.813 121.327 298.353 127.5C300.885 133.673 303.464 144.101 305.591 150.626C307.712 157.152 313.857 173.573 316.678 182.472C319.499 191.371 351.064 263.165 362 279H358.132C339.29 257.507 311.121 178.06 305.938 162.191Z" fill="#8E5C4D"/>
<path fill-rule="evenodd" clip-rule="evenodd" d="M232.313 90.0038C233.696 85.2457 233.999 83 233.999 83C234.043 87.5528 232.949 91.6387 231.301 94.7966C231.027 94.7155 230.599 94.8319 230 95C230.761 93.8504 231.67 92.2148 232.313 90.0038Z" fill="#CCA491"/>
<path fill-rule="evenodd" clip-rule="evenodd" d="M247.932 110C247.921 109.517 247.832 109.183 247.524 109.023C247.361 108.941 247.188 108.786 247 108.585C249.099 105.879 251 101 251 101C251 101 249.66 106.46 247.932 110Z" fill="#9C6A5C"/>
<path fill-rule="evenodd" clip-rule="evenodd" d="M253 134.332C253.006 129.447 254.176 130.947 254.219 127.918C254.262 124.89 257.949 121.468 258.558 119.751C259.168 118.034 259.488 119.254 257.161 123.479C254.834 127.703 254.859 127.929 254.68 130.784C254.539 133.12 254.182 131.322 253.172 135C253.068 134.568 253 134.332 253 134.332Z" fill="#9C6A5C"/>
<path fill-rule="evenodd" clip-rule="evenodd" d="M70.0657 164.505C65.8103 162.291 64 161 64 161C67.3126 164.074 70.9143 166.042 74.1326 167C74.2269 166.757 74.5474 166.535 75 166.23C73.7366 165.996 72.0394 165.534 70.0657 164.505Z" fill="#CCA491"/>
<path fill-rule="evenodd" clip-rule="evenodd" d="M77 189C76.6618 188.743 76.51 188.49 76.6549 188.142C76.7308 187.962 76.7722 187.73 76.7929 187.465C73.0798 187.88 68 187 68 187C68 187 73.0176 188.661 77 189Z" fill="#CCA491"/>
<path fill-rule="evenodd" clip-rule="evenodd" d="M91.6085 209.414C87.8952 206.163 88.2551 208.11 85.9249 206.126C83.6009 204.142 78.5551 204.848 76.8437 204.199C75.1323 203.55 75.8522 204.62 80.6012 205.552C85.3565 206.482 85.5081 206.652 87.7941 208.412C89.6634 209.852 88.5393 208.363 92 210C91.7411 209.625 91.6085 209.414 91.6085 209.414Z" fill="#CCA491"/>
<path fill-rule="evenodd" clip-rule="evenodd" d="M78.2129 268.323C80.3469 271.92 82.5001 275.382 84.5958 279H146.42C146.784 275.378 147.142 271.352 146.943 266.959C146.464 256.602 141.123 242.513 139.193 237.708C137.257 232.902 131.289 224.301 116.869 224.885C102.454 225.468 90.9341 207.293 90.9341 207.293C90.9341 207.293 87.3944 198.185 85.2667 195.568C83.1455 192.95 82.9027 192.181 81.4459 188.913C79.9827 185.644 77.1842 185.557 77.6506 184.229C78.1234 182.901 77.2736 179.338 76.5644 175.6C75.8488 171.862 74.7498 165.112 74.4687 164.253C74.1939 163.394 76.8327 163.118 78.6984 159.907C80.5578 156.696 84.9089 134.536 80.6855 137.226C76.4686 139.916 62.265 151.698 59.2172 154.155C56.1695 156.613 54.2718 158.076 53.7479 165.716C53.224 173.355 56.5337 194.813 53.8182 202.294C51.0963 209.776 52.1697 215.271 52.4125 216.533C53.3901 221.577 55.6519 224.02 58.6038 228.006C61.5557 231.992 69.6447 253.911 78.2129 268.323Z" fill="#A06959"/>
<path fill-rule="evenodd" clip-rule="evenodd" d="M60.9667 107.215C73.4095 81.5175 100.133 86.5389 127.027 74.1288C153.928 61.7187 167.365 38.1645 195.09 45.3291C222.808 52.4943 236.723 81.0001 248.138 113.043C259.554 145.086 261.791 164.879 243.703 157.824C225.614 150.769 215.383 120.348 160.339 145.747C105.288 171.146 121.977 198.59 115.677 216.896C109.384 235.203 95.6717 220.704 78.5187 191.31C61.3592 161.915 48.5239 132.912 60.9667 107.215Z" fill="#44464F"/>
<path fill-rule="evenodd" clip-rule="evenodd" d="M168.373 115.586V115.585C168.373 115.585 171.507 111.199 164.068 97.8785C163.952 97.6771 163.835 97.4744 163.725 97.2691L163.686 97.2103C163.615 97.0782 163.544 96.9461 163.479 96.8141C163.22 96.3237 162.974 95.8242 162.741 95.3142C155.892 80.387 162.32 62.681 177.1 55.7663C191.88 48.8515 209.411 55.3465 216.261 70.2738C221.401 81.4769 219.057 94.2459 211.321 102.843C210.823 103.399 210.298 103.937 209.754 104.457C202.562 112.173 203.753 115.99 206.278 121.175C211.593 132.754 206.602 146.49 195.136 151.854C183.671 157.218 170.07 152.18 164.761 140.6C160.825 132.016 162.553 122.251 168.373 115.586Z" fill="#303035"/>
<path fill-rule="evenodd" clip-rule="evenodd" d="M171.673 138.564C175.846 147.582 186.542 151.506 195.564 147.329C204.579 143.151 208.508 132.454 204.328 123.435C200.149 114.418 189.453 110.494 180.437 114.671C171.415 118.849 167.493 129.546 171.673 138.564Z" fill="#606063"/>
<path fill-rule="evenodd" clip-rule="evenodd" d="M175.253 138.173C178.385 144.936 186.406 147.88 193.174 144.747C199.935 141.613 202.88 133.591 199.748 126.827C196.616 120.064 188.589 117.12 181.827 120.253C175.06 123.387 172.122 131.409 175.253 138.173Z" fill="#9F9F9E"/>
<path fill-rule="evenodd" clip-rule="evenodd" d="M200.798 103.725C213.067 98.039 218.414 83.4791 212.724 71.2043C207.041 58.9294 192.478 53.5887 180.203 59.2748C167.928 64.961 162.588 79.5209 168.277 91.7957C173.96 104.071 188.523 109.411 200.798 103.725Z" fill="#606063"/>
<path fill-rule="evenodd" clip-rule="evenodd" d="M187.522 77.4429C190.528 76.0504 191.836 72.4844 190.442 69.4791C189.048 66.4722 185.481 65.1647 182.475 66.5571C179.469 67.9496 178.168 71.5156 179.555 74.5217C180.949 77.5278 184.515 78.8353 187.522 77.4429Z" fill="#0EAD69"/>
<path fill-rule="evenodd" clip-rule="evenodd" d="M199.52 99.4429C202.528 98.0504 203.836 94.4844 202.442 91.4783C201.055 88.4722 197.487 87.1647 194.48 88.5571C191.472 89.9496 190.164 93.5156 191.558 96.5217C192.945 99.5278 196.513 100.835 199.52 99.4429Z" fill="#6A64EC"/>
<path fill-rule="evenodd" clip-rule="evenodd" d="M185.442 88.4788C184.048 85.4729 180.488 84.1646 177.482 85.557C174.475 86.9501 173.167 90.5152 174.553 93.5212C175.947 96.5271 179.515 97.8354 182.521 96.443C185.528 95.0506 186.836 91.4848 185.442 88.4788Z" fill="#BB30D1"/>
<path d="M207.442 73.4786C206.048 70.4726 202.488 69.1642 199.482 70.5575C196.475 71.9499 195.167 75.5151 196.553 78.5211C197.947 81.5271 201.515 82.8355 204.521 81.443C207.528 80.0506 208.836 76.4846 207.442 73.4786Z" fill="#CD2B37"/>
<path fill-rule="evenodd" clip-rule="evenodd" d="M132.204 133.322V133.318C132.204 133.318 126.762 132.904 121.42 118.724C121.341 118.506 121.262 118.289 121.176 118.072L121.15 118.009C121.103 117.867 121.044 117.73 120.985 117.595C120.78 117.085 120.556 116.577 120.319 116.073C113.347 101.319 95.4795 94.8997 80.4217 101.734C65.364 108.569 58.8146 126.069 65.7927 140.822C71.023 151.895 82.3938 158.274 94.1076 157.877C94.8661 157.852 95.6246 157.797 96.3831 157.714C107.061 157.169 109.212 160.516 111.533 165.756C116.948 177.201 130.799 182.181 142.48 176.879C154.161 171.577 159.246 158.002 153.837 146.556C149.821 138.072 141.174 133.146 132.204 133.322Z" fill="#303035"/>
<path fill-rule="evenodd" clip-rule="evenodd" d="M145.331 147.436C149.504 156.454 145.582 167.151 136.567 171.329C127.545 175.506 116.848 171.582 112.669 162.564C108.496 153.546 112.418 142.849 121.433 138.671C130.455 134.494 141.152 138.418 145.331 147.436Z" fill="#606063"/>
<path fill-rule="evenodd" clip-rule="evenodd" d="M142.744 150.827C145.882 157.59 142.938 165.613 136.171 168.746C129.41 171.88 121.39 168.937 118.252 162.173C115.121 155.41 118.065 147.387 124.826 144.254C131.593 141.12 139.612 144.063 142.744 150.827Z" fill="#9F9F9E"/>
<path fill-rule="evenodd" clip-rule="evenodd" d="M113.723 117.205C119.412 129.479 114.073 144.039 101.797 149.725C89.5223 155.411 74.9596 150.07 69.2769 137.796C63.5876 125.521 68.9275 110.961 81.2026 105.275C93.4777 99.5886 108.04 104.93 113.723 117.205Z" fill="#606063"/>
<path fill-rule="evenodd" clip-rule="evenodd" d="M88.7962 129.367L88.7959 129.366C85.8707 128.305 84.2307 127.71 81.3057 126.647L73.5799 130.25C72.9092 130.563 72.6188 131.359 72.9309 132.028L76.5592 139.809C76.8712 140.478 77.6675 140.767 78.3382 140.454L86.064 136.852C87.1308 133.929 87.7291 132.29 88.7962 129.367ZM101.612 129.601L109.338 125.999C110.008 125.686 110.299 124.891 109.987 124.222L106.358 116.441C106.046 115.771 105.25 115.482 104.579 115.795L96.8537 119.397C95.7869 122.321 95.1884 123.96 94.1218 126.883L94.1221 126.883C97.0468 127.945 98.687 128.54 101.612 129.601ZM92.6988 130.783L92.698 130.783C91.6309 133.706 91.033 135.345 89.9658 138.268L93.562 145.98C93.874 146.649 94.6705 146.938 95.3408 146.626L103.136 142.991C103.806 142.678 104.097 141.882 103.785 141.213L100.189 133.501C97.2636 132.44 95.6238 131.844 92.6988 130.783ZM90.2196 125.466L90.2189 125.467C87.2937 124.405 85.654 123.81 82.7289 122.748L79.1329 115.037C78.8208 114.368 79.1114 113.572 79.7817 113.259L87.5768 109.624C88.2472 109.311 89.0436 109.601 89.3557 110.27L92.9517 117.981C91.8847 120.905 91.2866 122.543 90.2196 125.466Z" fill="#4D4D52"/>
<path fill-rule="evenodd" clip-rule="evenodd" d="M88.7968 128.179L88.7964 128.179C85.8716 127.117 84.2314 126.521 81.3064 125.46L73.5806 129.063C72.9103 129.375 72.6198 130.171 72.9318 130.84L76.5599 138.621C76.8721 139.29 77.6686 139.58 78.339 139.267L86.0647 135.664C87.1317 132.741 87.7302 131.102 88.7968 128.179ZM101.613 128.414L109.339 124.811C110.009 124.499 110.3 123.703 109.988 123.033L106.359 115.253C106.047 114.584 105.251 114.295 104.581 114.607L96.8548 118.21C95.7876 121.133 95.1897 122.772 94.1227 125.695L94.1231 125.696C97.0483 126.757 98.6879 127.352 101.613 128.414ZM92.6997 129.595L92.699 129.596C91.6318 132.518 91.0339 134.157 89.9668 137.08L93.563 144.792C93.875 145.462 94.6713 145.75 95.3421 145.437L103.137 141.803C103.807 141.49 104.098 140.694 103.786 140.025L100.19 132.313C97.2649 131.252 95.6247 130.656 92.6997 129.595ZM90.2205 124.279L90.2198 124.279C87.2946 123.217 85.6548 122.622 82.7298 121.56L79.1339 113.849C78.8215 113.179 79.1122 112.384 79.7829 112.071L87.5777 108.436C88.248 108.123 89.0447 108.412 89.3571 109.082L92.9529 116.793C91.8858 119.716 91.2875 121.355 90.2205 124.279Z" fill="#9F9F9E"/>
<path fill-rule="evenodd" clip-rule="evenodd" d="M131.746 86.9058C143.265 81.8802 153.612 72.4961 148.784 82.2656C143.95 92.0357 150.042 100.95 140.666 105.041C131.29 109.132 128.006 98.9914 116.968 96.1462C105.931 93.3005 120.226 91.932 131.746 86.9058Z" fill="#303035"/>
<path fill-rule="evenodd" clip-rule="evenodd" d="M140.03 117.725L133.536 120.747C132.352 121.298 130.942 120.782 130.386 119.592C129.831 118.404 130.341 116.993 131.525 116.441L138.018 113.419C139.203 112.868 140.614 113.385 141.169 114.573C141.725 115.763 141.214 117.173 140.03 117.725Z" fill="#303035"/>
<path fill-rule="evenodd" clip-rule="evenodd" d="M150.79 112.716L157.282 109.694C158.467 109.143 158.978 107.732 158.422 106.543C157.867 105.354 156.456 104.837 155.271 105.389L148.778 108.411C147.594 108.962 147.084 110.373 147.639 111.562C148.194 112.751 149.605 113.268 150.79 112.716Z" fill="#303035"/>
<path fill-rule="evenodd" clip-rule="evenodd" d="M246.287 197.715C235.134 176.923 231.652 165.339 226.713 153.492C221.775 141.644 220.758 139.261 211.287 127.302C201.817 115.344 193.369 104.142 198.606 94.6927C203.844 85.2433 213.86 88.1765 224.008 98.9333C234.157 109.69 236.723 114.055 239.567 120.078C242.419 126.101 249.377 135.198 253.937 139.843C258.496 144.488 262.324 147.709 267.993 151.111C273.663 154.512 298.4 176.883 287.062 198.285C275.716 219.688 253.019 210.272 246.287 197.715Z" fill="#A67161"/>
<path fill-rule="evenodd" clip-rule="evenodd" d="M207.009 110.791C211.884 109.624 220.758 102.847 220.758 102.847C220.758 102.847 217.897 96.1246 214.495 92.7126C211.094 89.3012 202.502 89.0558 200.305 96.5851C198.114 104.114 207.009 110.791 207.009 110.791Z" fill="#B7887F"/>
<path fill-rule="evenodd" clip-rule="evenodd" d="M143.346 245.577C134.459 223.977 127.761 213.966 121.788 202.706C115.821 191.446 114.637 189.164 111.479 174.472C108.328 159.782 105.098 146.333 94.4666 144.156C83.8288 141.979 79.6777 151.283 81.4737 165.705C83.2697 180.127 84.9933 184.825 87.809 190.799C90.6312 196.774 93.1838 207.772 93.8482 214.129C94.5127 220.487 94.5456 225.389 93.539 231.774C92.5259 238.159 93.9338 270.844 117.689 276.166C141.445 281.488 148.715 258.623 143.346 245.577Z" fill="#A67161"/>
<path fill-rule="evenodd" clip-rule="evenodd" d="M100.99 156.389C97.1356 159.537 86.6667 162 86.6667 162C86.6667 162 83.4566 154.942 83.0248 149.768C82.5993 144.594 87.6992 137.422 94.6138 140.931C101.528 144.44 100.99 156.389 100.99 156.389Z" fill="#B7887F"/>
<path fill-rule="evenodd" clip-rule="evenodd" d="M81.2531 269.403C72.1963 255.099 63.6462 233.344 60.526 229.387C57.4057 225.431 55.0149 223.007 53.9816 218C54.2383 219.251 53.1036 220.64 52.1311 225.567C51.1586 230.493 55.8119 235.071 58.9794 241.029C62.1536 246.987 68.6507 255.74 72.3719 261.614C74.7425 265.349 79.1729 272.93 83.4142 280H88C85.7848 276.409 83.5088 272.973 81.2531 269.403Z" fill="#8E5C4D"/>
</g>
</svg>
