<svg width="120" height="120" viewBox="0 0 120 120" fill="none" xmlns="http://www.w3.org/2000/svg">
<path d="M106.904 108.741C88.5178 123.753 31.107 123.753 13.0957 108.741C-5.29073 93.7294 -3.41459 29.5543 13.0957 12.6661C29.6061 -4.22205 90.3939 -4.22205 106.904 12.6661C123.415 29.5543 125.291 93.7297 106.904 108.741Z" fill="#8CFFB0"/>
<path d="M103.777 105.492C86.6166 119.503 33.0332 119.503 16.2227 105.492C-0.938013 91.4808 0.81305 31.584 16.2227 15.8217C31.6323 0.0594234 88.3677 0.0594234 103.777 15.8217C119.187 31.584 120.938 91.4811 103.777 105.492Z" fill="#00A032"/>
<g opacity="0.2">
<path d="M60.0115 80.9003C44.7147 93.122 27.6796 99.4075 11.6875 99.7566C-0.132819 79.5036 2.30087 30.2678 16.2071 15.9511C28.7226 3.03108 68.0075 0.58664 90.6052 8.61799C96.1675 31.6646 84.695 60.9964 60.0115 80.9003Z" fill="white"/>
</g>
<path d="M48.1681 89.8479C46.7121 89.6691 45.3022 89.116 44.1627 88.2162L43.8876 87.9865L42.7586 86.8941L28.0629 72.3761L20.0571 64.4424C17.709 60.6347 18.9986 55.8659 22.8062 53.5179C25.8253 51.6561 29.4486 52.0812 31.9904 54.2352L48.6837 70.3417L84.4867 34.8293C87.6862 31.7028 92.6253 31.6053 95.7518 34.8047C98.8132 37.9376 98.9705 42.7383 95.9721 45.8721L54.7921 87.4937C52.8457 89.0144 50.5953 90.1459 48.1681 89.8479Z" fill="white"/>
</svg>
