<svg width="197" height="250" viewBox="0 0 197 250" fill="none" xmlns="http://www.w3.org/2000/svg">
<path fill-rule="evenodd" clip-rule="evenodd" d="M86.2174 172.214L84.3267 160.506L96.7183 132.622L129.25 142.691L140.989 127.394C142.14 125.893 143.974 125.001 145.855 125.2L146.29 125.264C148.042 125.583 150.531 126.927 150.888 128.745C151.342 131.042 150.25 134.529 149.496 136.721C147.41 142.778 144.096 149.216 143.095 155.529C142.292 160.597 142.598 168.642 140.296 173.269C137.362 179.161 134.415 185.047 131.467 190.933C126.72 200.412 125.238 211.409 124.527 222.41C115.35 213.044 113.335 194.883 106.982 182.966C103.631 176.265 94.7619 173.116 86.2174 172.214Z" fill="#8E5C4D"/>
<path fill-rule="evenodd" clip-rule="evenodd" d="M86.2174 172.214C94.7619 173.116 103.631 176.265 106.982 182.966C113.335 194.883 115.35 213.044 124.527 222.41C124.069 229.536 122.185 257.53 121.697 264.245L80.2587 259.984L89.6793 202.35C90.236 200.037 90.3252 197.634 89.9471 195.283L86.2174 172.214Z" fill="#A67161"/>
<path fill-rule="evenodd" clip-rule="evenodd" d="M116.821 226.328C117.154 221.024 117.448 215.608 117.147 210.277C119.075 214.951 121.38 219.197 124.527 222.41C124.069 229.536 122.185 257.53 121.697 264.245L113.385 263.413C114.157 258.033 116.48 231.758 116.821 226.328Z" fill="#8E5C4D"/>
<path fill-rule="evenodd" clip-rule="evenodd" d="M99.2573 185.167C95.4665 183.509 91.5724 181.982 87.6007 180.763L86.2174 172.214C94.7619 173.116 103.631 176.265 106.982 182.966C108.513 185.839 109.791 189.075 110.98 192.46C107.79 189.063 103.513 187.025 99.2573 185.167Z" fill="#8E5C4D"/>
<path fill-rule="evenodd" clip-rule="evenodd" d="M115.339 13.7598L107.701 13.6265L107.834 5.98856C107.851 5.03419 107.083 4.23921 106.129 4.22254C105.174 4.20587 104.379 4.9736 104.362 5.92796L104.229 13.5659L96.5912 13.4326C95.6364 13.4159 94.8419 14.1836 94.8252 15.1367C94.8085 16.0941 95.5758 16.8891 96.5306 16.9057L104.169 17.039L104.035 24.6765C104.019 25.6296 104.786 26.4246 105.741 26.4413C106.695 26.4579 107.49 25.6902 107.507 24.7371L107.64 17.0996L115.278 17.233C116.232 17.2496 117.027 16.4819 117.044 15.5245C117.061 14.5715 116.293 13.7765 115.339 13.7598Z" fill="white"/>
<path fill-rule="evenodd" clip-rule="evenodd" d="M80.2401 117.382C72.717 118.715 62.2205 118.687 48.9338 117.291C31.4137 115.448 18.1664 102.002 10.625 78.4016C5.18765 61.3865 4.57852 45.1343 4.55566 44.451C4.47718 42.1564 6.09808 40.1535 8.35756 39.7506L53.1561 31.7976L54.7686 40.8785L18.2875 47.3576C15.8769 47.7836 14.2188 50.0221 14.5157 52.4494C16.5566 69.1475 23.9627 105.393 49.8987 108.118C68.5119 110.074 77.6369 108.864 82.0145 107.497C84.1362 106.839 84.9346 106.2 85.1283 106.023L85.1672 105.985L85.1694 105.98L85.1325 106.031L85.0702 106.129L84.993 106.269C84.9814 106.299 84.9282 106.414 84.9087 106.453C84.8946 106.495 84.8307 106.662 84.8177 106.696L88.8314 108.041L93.6565 109.307C93.293 110.692 91.6993 114.142 84.7564 116.306C83.3955 116.729 81.8887 117.089 80.2401 117.382Z" fill="#ECC32E"/>
<path fill-rule="evenodd" clip-rule="evenodd" d="M134.956 108.597C142.479 107.264 152.324 103.623 164.317 97.7339C180.132 89.9707 187.937 72.7874 186.891 48.0331C186.136 30.1851 181.112 14.7146 180.898 14.0667C180.181 11.8855 177.971 10.5629 175.711 10.9658L130.913 18.9231L132.525 28.0039L169.006 21.5248C171.417 21.0945 173.744 22.6253 174.302 25.0098C178.136 41.3871 183.663 77.9649 160.253 89.4562C143.452 97.7046 134.467 99.7036 129.887 99.9329C127.668 100.044 126.7 99.7226 126.455 99.6196L126.406 99.5973L126.403 99.5972L126.455 99.6282L126.546 99.6985L126.668 99.8037L126.81 99.9479L126.978 100.144L123.675 102.792L119.581 105.641C120.398 106.814 123.083 109.507 130.346 109.144C131.77 109.074 133.308 108.891 134.956 108.597Z" fill="#ECC32E"/>
<path fill-rule="evenodd" clip-rule="evenodd" d="M143.495 4.33366C136.28 9.77506 115.194 16.5057 89.7874 21.0181C66.5511 25.1431 46.0694 26.2844 36.1242 24.4445C35.6671 33.5623 36.2416 43.1618 37.9805 52.9491C46.381 100.253 78.7121 134.065 110.194 128.474C141.675 122.882 160.385 80.0021 151.984 32.7024C150.179 22.536 147.265 12.9944 143.495 4.33366Z" fill="#ECC32E"/>
<path fill-rule="evenodd" clip-rule="evenodd" d="M72.7342 105.355C71.8892 98.1132 71.0446 90.8709 70.2 83.6285C69.9723 72.3946 72.4961 61.9645 77.7707 52.3339C81.2357 42.2852 87.0081 33.6339 95.0879 26.3885C98.1877 23.1659 101.515 20.351 105.063 17.9264C100.217 19.0314 95.0985 20.0758 89.7874 21.0181C81.4264 22.504 73.4261 23.5969 66.1405 24.3114L66.7782 29.7765C67.0059 41.0105 64.4821 51.4406 59.2075 61.0712C56.4938 68.9428 52.3575 75.9521 46.8125 82.1038C54.6215 99.6927 65.9879 113.578 78.8123 121.557C76.2581 116.454 74.2262 111.054 72.7342 105.355Z" fill="#F7DA6E"/>
<path fill-rule="evenodd" clip-rule="evenodd" d="M143.691 5.44119C144.641 10.7885 121.388 19.3924 91.7548 24.6554C62.1218 29.9185 37.3285 29.8508 36.3788 24.5005C35.4286 19.1502 58.6812 10.5463 88.3146 5.28453C117.948 0.0214448 142.74 0.0913233 143.691 5.44119Z" fill="#E7A52E"/>
<ellipse cx="130.056" cy="225.479" rx="41.7608" ry="22.9063" transform="rotate(-11 130.056 225.479)" fill="#2F2726"/>
<path fill-rule="evenodd" clip-rule="evenodd" d="M166.777 197.683C167.935 204.201 150.454 210.573 127.83 214.589C105.205 218.609 86.0036 218.75 84.8462 212.232C83.6884 205.715 100.392 193.243 123.017 189.223C145.642 185.208 165.619 191.165 166.777 197.683Z" fill="#E7A52E"/>
<path fill-rule="evenodd" clip-rule="evenodd" d="M118.69 156.66C115.551 140.928 132.013 99.4847 132.013 99.4847L78.9257 106.472C78.9257 106.472 107.088 140.364 110.756 158.748C114.423 177.131 110.086 197.14 110.086 197.14L110.088 197.14L110.092 197.179C110.593 199.996 117.224 201.177 124.904 199.812C132.584 198.447 138.404 195.058 137.903 192.24C137.892 192.176 137.874 192.115 137.857 192.055C137.857 192.055 121.829 172.392 118.69 156.66Z" fill="#ECC32E"/>
<path fill-rule="evenodd" clip-rule="evenodd" d="M126.503 65.0243C128.854 78.2622 120.028 90.897 106.79 93.2512C93.5513 95.6011 80.9135 86.7744 78.5623 73.5365C76.2111 60.2986 85.0365 47.6595 98.2748 45.3096C111.514 42.9597 124.151 51.7821 126.503 65.0243Z" fill="#E7A52E"/>
<path fill-rule="evenodd" clip-rule="evenodd" d="M96.4001 39.0929C79.7043 42.0609 68.5335 58.056 71.499 74.7531C74.4645 91.4459 90.4601 102.616 107.156 99.652C123.852 96.6883 135.022 80.6932 132.057 63.9961C129.091 47.299 113.096 36.1291 96.4001 39.0929ZM107.745 102.973C89.218 106.266 71.4677 93.8672 68.1773 75.3393C64.8869 56.8157 77.2826 39.0641 95.8101 35.7716C114.338 32.4833 132.088 44.8778 135.379 63.4056C138.669 81.9335 126.273 99.6851 107.745 102.973Z" fill="#E7A52E"/>
<path fill-rule="evenodd" clip-rule="evenodd" d="M98.3376 65.1339L93.2258 70.4299L91.9488 63.2402L98.1315 56.769L104.206 55.6941L109.336 84.5779L102.022 85.876L98.3376 65.1339Z" fill="#F7DA6E"/>
<path fill-rule="evenodd" clip-rule="evenodd" d="M24.5935 36.4567L14.9614 119.352L25.6315 105.59L35.6517 116.299L34.2797 34.7362L24.5935 36.4567Z" fill="#0062FF"/>
<path fill-rule="evenodd" clip-rule="evenodd" d="M157.245 14.4355L194.832 88.9433L180.077 79.6974L174.357 93.2024L147.559 16.156L157.245 14.4355Z" fill="#0062FF"/>
<path fill-rule="evenodd" clip-rule="evenodd" d="M18.2492 91.0573L14.9614 119.352L25.6311 105.59L35.6517 116.299L35.1085 84.0166C29.5955 86.7848 23.9752 89.1302 18.2492 91.0573Z" fill="#1A5CC6"/>
<path fill-rule="evenodd" clip-rule="evenodd" d="M173.248 63.7059C169.02 60.3211 164.792 56.932 160.564 53.5471L174.357 93.2024L180.076 79.6974L194.832 88.9432L185.099 69.6501C181.05 68.0077 177.098 66.032 173.248 63.7059Z" fill="#1A5CC6"/>
<path fill-rule="evenodd" clip-rule="evenodd" d="M90.8607 129.67C94.3462 126.619 101.632 125.75 102.611 126.048C105.979 126.541 109.695 127.274 113.662 128.362C119.731 130.025 124.947 132.122 129.243 134.182C129.595 134.327 130.95 134.884 131.603 136.373C132.059 137.421 132.151 138.703 131.765 139.962C130.997 142.484 128.599 144.006 126.443 143.349C122.688 142.761 118.479 141.885 113.953 140.561C109.209 139.173 106.524 138.384 102.684 136.93L93.3409 140.225C91.6452 140.941 89.6159 140.443 89.1203 138.672C88.4345 136.218 88.5614 131.68 90.8607 129.67Z" fill="#A67161"/>
<path fill-rule="evenodd" clip-rule="evenodd" d="M130.088 141.545C129.426 142.682 128.076 143.222 126.814 142.844L122.829 141.655C120.616 140.993 119.303 138.795 119.907 136.765C120.515 134.736 122.819 133.618 125.032 134.278L129.027 135.471C130.272 135.845 131.12 137.012 131.054 138.308C131.04 138.609 131.004 138.926 130.943 139.253C130.774 140.157 130.45 140.922 130.088 141.545Z" fill="#B7887F"/>
<path fill-rule="evenodd" clip-rule="evenodd" d="M82.8846 147.677L82.8963 147.588C83.2463 144.694 86.1046 141.561 89.226 141.141C94.325 139.828 98.2755 139.541 101.028 139.544C102.609 139.546 107.541 139.647 107.541 139.647C108.318 139.429 109.11 139.44 109.845 139.729C113.258 140.572 116.926 141.651 120.778 143.029C127.27 145.354 132.883 148.037 137.602 150.66C138.036 150.923 139.401 151.719 139.866 153.378C140.223 154.643 140.155 156.17 139.572 157.652C138.408 160.609 135.615 162.307 133.365 161.422C127.641 160.37 120.649 158.439 113.225 154.791C110.82 153.61 111.01 154.101 108.997 152.849C106.322 154.329 98.9378 154.794 92.4743 154.646C89.7827 154.585 87.4575 154.131 85.6044 153.603C84.6672 153.335 83.9039 152.668 83.5187 151.776C83.0866 150.775 82.7014 149.361 82.8846 147.677Z" fill="#A67161"/>
<path fill-rule="evenodd" clip-rule="evenodd" d="M137.818 158.965C137.092 160.179 135.617 160.72 134.262 160.316L130.321 159.136C128.054 158.462 126.765 156.022 127.453 153.713C128.141 151.407 130.558 150.075 132.825 150.752L136.768 151.928C138.116 152.332 139.056 153.587 139.002 154.991C138.976 155.635 138.873 156.353 138.642 157.117C138.422 157.828 138.13 158.444 137.818 158.965Z" fill="#B7887F"/>
<path fill-rule="evenodd" clip-rule="evenodd" d="M80.8412 159.947C80.9211 159.35 81.1066 158.775 81.3532 158.23C82.699 155.282 85.8486 153.587 89.0781 153.85C89.0781 153.85 110.376 154.958 111.315 155.329C115.278 156.165 119.937 157.45 124.989 159.463C127.777 160.572 130.507 161.833 133.158 163.235C135.056 164.238 138.26 165.302 138.804 167.601C139.004 168.435 138.941 169.313 138.772 170.154C138.487 171.563 137.778 174.053 136.284 174.659C134.993 175.185 132.346 175.089 131.063 174.821C126.922 173.952 123.399 172.261 119.472 170.645C115.745 169.111 111.888 168.534 108.828 167.178C103.938 167.942 89.4938 170.058 85.71 169.074C81.1301 167.885 80.3574 163.529 80.8412 159.947Z" fill="#A67161"/>
<path fill-rule="evenodd" clip-rule="evenodd" d="M136.216 172.919C135.676 173.858 134.546 174.288 133.508 173.975L129.342 172.733C127.115 172.066 125.847 169.67 126.523 167.404C127.202 165.14 129.574 163.832 131.801 164.494L135.97 165.739C137.022 166.053 137.719 167.049 137.651 168.144C137.611 168.771 137.515 169.466 137.322 170.211C137.043 171.286 136.634 172.19 136.216 172.919Z" fill="#B7887F"/>
<path fill-rule="evenodd" clip-rule="evenodd" d="M102.689 168.726C106.395 168.463 112.112 168.348 113.079 168.743C115.813 169.367 118.834 170.225 122.042 171.418C127 173.259 131.178 175.439 134.558 177.51C134.842 177.663 135.927 178.234 136.364 179.554C136.674 180.486 136.662 181.595 136.261 182.654C135.455 184.772 133.372 185.923 131.632 185.214C128.449 183.913 124.802 183.488 121.549 182.226C119.31 181.357 116.992 180.74 114.667 180.153C111.548 179.368 107.341 179.96 104.178 180.394C100.324 180.921 96.2885 181.815 92.4531 180.768C89.6488 180.005 85.7406 178.281 85.198 175.037C84.1059 168.527 92.3827 169.464 102.689 168.726Z" fill="#A67161"/>
<path fill-rule="evenodd" clip-rule="evenodd" d="M133.593 183.114C132.928 184.098 131.636 184.441 130.551 183.957L127.822 182.743C126.147 181.996 125.398 179.993 126.157 178.288C126.915 176.583 128.907 175.796 130.584 176.543L133.311 177.757C134.398 178.238 135.007 179.427 134.72 180.58C134.619 180.996 134.471 181.442 134.267 181.9C134.062 182.358 133.832 182.762 133.593 183.114Z" fill="#B7887F"/>
</svg>
