<svg width="195" height="195" viewBox="0 0 195 195" fill="none" xmlns="http://www.w3.org/2000/svg">
<g filter="url(#filter0_d_1619_22646)">
<rect x="10" y="10" width="175" height="175" rx="80.5" fill="white"/>
</g>
<rect x="64.6182" y="85.6909" width="23.6078" height="48.6571" transform="rotate(45.3545 64.6182 85.6909)" fill="#0EAD69"/>
<rect x="88.3896" y="113.82" width="23.6078" height="48.6571" transform="rotate(45.3545 88.3896 113.82)" fill="#0EAD69"/>
<rect x="142.39" y="36.8195" width="23.6078" height="30.3623" transform="rotate(45.3545 142.39 36.8195)" fill="#0EAD69"/>
<rect x="101.369" y="30" width="23.0751" height="55.6556" transform="rotate(45.3545 101.369 30)" fill="#0EAD69"/>
<rect x="147.369" y="70.8195" width="25.8573" height="55.6556" transform="rotate(45.3545 147.369 70.8195)" fill="#0EAD69"/>
<rect x="118.369" y="47.8195" width="25.8573" height="55.6556" transform="rotate(45.3545 118.369 47.8195)" fill="#0EAD69"/>
<rect x="133.991" y="106.437" width="26.3954" height="55.6556" transform="rotate(45.3545 133.991 106.437)" fill="#0EAD69"/>
<path d="M129.845 77.0393C140.597 92.6926 136.625 114.099 120.971 124.842C105.318 135.595 83.9112 131.623 73.1569 115.967C62.4026 100.314 66.3775 78.9075 82.0319 68.1532C97.6852 57.4023 119.092 61.3761 129.835 77.0282" fill="#E6E7E8" fill-opacity="0.85"/>
<path d="M105.154 108.199L90.9145 109.785L82.4189 98.2482L88.1677 85.1243L102.41 83.5357L110.904 95.0776L105.154 108.199Z" fill="#345351"/>
<path d="M133.978 86.7374C132.962 83.1887 131.381 79.8268 129.297 76.7807C126.293 72.4117 122.313 68.8019 117.672 66.2372L113.148 76.5722L121.643 88.1119L133.977 86.7362" fill="#345351"/>
<path d="M86.5023 74.0185L90.9243 63.9187C84.1906 65.9858 78.2549 70.0723 73.9209 75.6249L86.3825 74.2381C86.4247 74.1627 86.4579 74.0906 86.5023 74.0185Z" fill="#345351"/>
<path d="M124.391 108.588L118.645 121.713L120.877 124.743C120.902 124.721 120.935 124.71 120.965 124.688C127.288 120.348 131.666 114.253 133.971 107.517L124.386 108.585" fill="#345351"/>
<path d="M73.9302 104.997L68.2646 105.629C70.1129 112.648 74.1199 118.731 79.4937 123.227L82.4236 116.537L73.9302 104.998" fill="#345351"/>
<defs>
<filter id="filter0_d_1619_22646" x="0" y="0" width="195" height="195" filterUnits="userSpaceOnUse" color-interpolation-filters="sRGB">
<feFlood flood-opacity="0" result="BackgroundImageFix"/>
<feColorMatrix in="SourceAlpha" type="matrix" values="0 0 0 0 0 0 0 0 0 0 0 0 0 0 0 0 0 0 127 0" result="hardAlpha"/>
<feOffset/>
<feGaussianBlur stdDeviation="5"/>
<feComposite in2="hardAlpha" operator="out"/>
<feColorMatrix type="matrix" values="0 0 0 0 0 0 0 0 0 0 0 0 0 0 0 0 0 0 0.1 0"/>
<feBlend mode="normal" in2="BackgroundImageFix" result="effect1_dropShadow_1619_22646"/>
<feBlend mode="normal" in="SourceGraphic" in2="effect1_dropShadow_1619_22646" result="shape"/>
</filter>
</defs>
</svg>
